# xmcd
#
# Track frame offsets: 
#        150
#        44937
#        72525
#        109495
#        165562
#        184857
#        217102
#        240277
#        259082
#
# Disc length: 3746 seconds
#
# Revision: 1
# Processed by: cddbd v1.5.2PL0 Copyright (c) Steve Scherf et al.
# Submitted via: ExactAudioCopy v0.95b3
#
DISCID=8c0ea009
DTITLE=Thelonious Monk - It's Monk's Time (Remaster)
DYEAR=1964
DGENRE=Jazz
TTITLE0=Lulu's Back In Town
TTITLE1=Memories Of You
TTITLE2=Stuffy Turkey
TTITLE3=Brake's Sake
TTITLE4=Nice Work If You Can Get It (Take 3)
TTITLE5=Shuffle Boil (Retake)
TTITLE6=Epistrophy (Take 1)
TTITLE7=Nice Work If You Can Get It (Take 2)
TTITLE8=Shuffle Boil (Take 5)
EXTD=YEAR: 1964
EXTT0=
EXTT1=
EXTT2=
EXTT3=
EXTT4=
EXTT5=
EXTT6=
EXTT7=
EXTT8=
PLAYORDER=
